<svg width="250" height="39" viewBox="0 0 250 39" fill="none" xmlns="http://www.w3.org/2000/svg">
<path d="M80.5554 10.7664C81.0059 10.7664 81.2311 10.9506 81.2311 11.319V11.4769C81.2311 11.7663 80.9794 12.161 80.4759 12.661C79.9724 13.1346 79.5881 13.6609 79.3231 14.2398L71.8103 30.5806C71.3333 31.6595 70.9225 32.5147 70.578 33.1462C70.26 33.7777 69.783 34.5408 69.147 35.4355C68.5375 36.3301 67.8352 37.0011 67.0402 37.4485C66.2452 37.8958 65.3839 38.1195 64.4564 38.1195C62.8929 38.1195 61.6076 37.7116 60.6006 36.8959C59.5936 36.1065 59.0901 35.225 59.0901 34.2514C59.0901 33.6725 59.2623 33.1988 59.6068 32.8304C59.9514 32.462 60.4284 32.2778 61.0379 32.2778C61.6209 32.2778 62.0979 32.4883 62.4689 32.9094C62.8399 33.3567 63.0916 33.8435 63.2241 34.3698C63.3831 34.9224 63.6217 35.4092 63.9397 35.8302C64.2577 36.2775 64.6684 36.5012 65.1719 36.5012C66.5499 36.5012 68.034 34.5408 69.624 30.6201L61.8726 14.2398C61.5811 13.6609 61.1704 13.1346 60.6404 12.661C60.1104 12.161 59.8454 11.7663 59.8454 11.4769V11.319C59.8454 10.9506 60.0839 10.7664 60.5609 10.7664H66.8414C67.2919 10.7664 67.5172 10.9638 67.5172 11.3585V11.4769C67.5172 11.6874 67.3979 11.9242 67.1594 12.1874C66.9209 12.4505 66.7487 12.7005 66.6427 12.9373C66.5632 13.1741 66.6427 13.6215 66.8812 14.2793L72.1283 26.2389L77.0573 14.7135C77.2958 13.9241 77.2958 13.3846 77.0573 13.0952C76.8188 12.7794 76.4876 12.49 76.0636 12.2268C75.6396 11.9374 75.4275 11.6874 75.4275 11.4769V11.3585C75.4275 10.9638 75.6661 10.7664 76.1431 10.7664H80.5554Z" fill="black"/>
<path d="M54.1148 30.1069C52.3922 30.1069 51.0275 29.5675 50.0205 28.4886C49.0399 27.3835 48.5497 25.7915 48.5497 23.7127V12.7004H46.2839C45.8334 12.7004 45.6082 12.4768 45.6082 12.0294V11.4769C45.6082 11.0032 45.8334 10.7664 46.2839 10.7664H47.5162C48.5232 10.7664 49.3314 10.4243 49.941 9.74015C50.577 9.056 50.9745 8.12187 51.1335 6.93775C51.213 6.35885 51.478 6.0694 51.9285 6.0694H52.5247C53.0282 6.0694 53.28 6.35885 53.28 6.93775L53.3198 10.7664H58.3283C58.5403 10.7664 58.7126 10.8322 58.8451 10.9637C58.9776 11.0953 59.0438 11.2663 59.0438 11.4769V12.0294C59.0438 12.4768 58.8053 12.7004 58.3283 12.7004H53.3198V23.7522C53.3198 24.6732 53.5318 25.3968 53.9558 25.9231C54.3798 26.423 54.923 26.673 55.5855 26.673C57.1756 26.673 58.1163 25.9888 58.4078 24.6205C58.5138 24.41 58.6728 24.2785 58.8848 24.2258C59.0968 24.1732 59.2823 24.1995 59.4413 24.3048C59.6268 24.41 59.7196 24.5811 59.7196 24.8179C59.7196 26.2388 59.2028 27.4756 58.1693 28.5281C57.1623 29.5807 55.8108 30.1069 54.1148 30.1069Z" fill="black"/>
<path d="M44.4926 10.7664C44.9431 10.7664 45.1684 10.9506 45.1684 11.319V11.4769C45.1684 11.7663 44.9166 12.161 44.4131 12.661C43.9096 13.1346 43.5254 13.6609 43.2604 14.2398L35.7475 30.5806C35.2705 31.6595 34.8597 32.5147 34.5152 33.1462C34.1972 33.7777 33.7202 34.5408 33.0842 35.4355C32.4747 36.3301 31.7725 37.0011 30.9774 37.4485C30.1824 37.8958 29.3212 38.1195 28.3937 38.1195C26.8301 38.1195 25.5449 37.7116 24.5379 36.8959C23.5308 36.1065 23.0273 35.225 23.0273 34.2514C23.0273 33.6725 23.1996 33.1988 23.5441 32.8304C23.8886 32.462 24.3656 32.2778 24.9751 32.2778C25.5581 32.2778 26.0351 32.4883 26.4061 32.9094C26.7771 33.3567 27.0289 33.8435 27.1614 34.3698C27.3204 34.9224 27.5589 35.4092 27.8769 35.8302C28.1949 36.2775 28.6057 36.5012 29.1092 36.5012C30.4872 36.5012 31.9712 34.5408 33.5612 30.6201L25.8099 14.2398C25.5184 13.6609 25.1076 13.1346 24.5776 12.661C24.0476 12.161 23.7826 11.7663 23.7826 11.4769V11.319C23.7826 10.9506 24.0211 10.7664 24.4981 10.7664H30.7787C31.2292 10.7664 31.4545 10.9638 31.4545 11.3585V11.4769C31.4545 11.6874 31.3352 11.9242 31.0967 12.1874C30.8582 12.4505 30.6859 12.7005 30.5799 12.9373C30.5004 13.1741 30.5799 13.6215 30.8184 14.2793L36.0655 26.2389L40.9946 14.7135C41.2331 13.9241 41.2331 13.3846 40.9946 13.0952C40.7561 12.7794 40.4248 12.49 40.0008 12.2268C39.5768 11.9374 39.3648 11.6874 39.3648 11.4769V11.3585C39.3648 10.9638 39.6033 10.7664 40.0803 10.7664H44.4926Z" fill="black"/>
<path d="M15.7412 14.6346C18.2322 14.9766 20.1535 15.7924 21.505 17.0817C22.883 18.3448 23.5721 19.9368 23.5721 21.8577C23.5721 24.2259 22.512 26.1336 20.392 27.5809C18.2985 29.0018 15.5292 29.7123 12.0842 29.7123H0.834761C0.278254 29.7123 0 29.5281 0 29.1597V29.0018C0 28.7913 0.238503 28.4624 0.715509 28.0151C1.21902 27.5414 1.47077 27.0151 1.47077 26.4362V4.96428C1.47077 4.38538 1.21902 3.87227 0.715509 3.42494C0.238503 2.95129 0 2.59606 0 2.35923V2.24082C0 1.87243 0.278254 1.68823 0.834761 1.68823H10.4941C13.7537 1.68823 16.2977 2.34607 18.1262 3.66176C19.9548 4.95113 20.869 6.6352 20.869 8.71398C20.869 10.2139 20.4053 11.4901 19.4778 12.5426C18.5767 13.5689 17.3312 14.2662 15.7412 14.6346ZM6.28058 5.28005V12.1874C6.28058 12.6873 6.43958 13.0952 6.75759 13.411C7.07559 13.7267 7.4996 13.8846 8.0296 13.8846H11.6072C13.0912 13.8846 14.2837 13.4768 15.1847 12.661C16.1122 11.819 16.576 10.7533 16.576 9.46392C16.576 7.64828 16.0195 6.2405 14.9064 5.24058C13.7934 4.21435 12.2697 3.70123 10.3351 3.70123H7.7116C6.75759 3.70123 6.28058 4.2275 6.28058 5.28005ZM11.6867 27.6993C16.3242 27.6993 18.643 26.0021 18.643 22.6076C18.643 20.7656 17.8877 19.1868 16.3772 17.8711C14.8667 16.5291 12.7864 15.8581 10.1364 15.8581H6.28058V25.3311C6.28058 26.0152 6.47933 26.581 6.87684 27.0283C7.27434 27.4756 7.7911 27.6993 8.42711 27.6993H11.6867Z" fill="black"/>
<path d="M249.324 10.7663C249.775 10.7663 250 10.9505 250 11.3189V11.4768C250 11.7662 249.748 12.1609 249.245 12.6609C248.741 13.1345 248.357 13.6608 248.092 14.2397L240.579 30.5805C240.102 31.6593 239.691 32.5145 239.347 33.1461C239.029 33.7776 238.552 34.5407 237.916 35.4354C237.306 36.33 236.604 37.001 235.809 37.4484C235.014 37.8957 234.153 38.1194 233.225 38.1194C231.662 38.1194 230.376 37.7115 229.369 36.8958C228.362 36.1064 227.859 35.2248 227.859 34.2512C227.859 33.6723 228.031 33.1987 228.376 32.8303C228.72 32.4619 229.197 32.2777 229.807 32.2777C230.39 32.2777 230.867 32.4882 231.238 32.9092C231.609 33.3566 231.86 33.8434 231.993 34.3697C232.152 34.9222 232.39 35.409 232.708 35.8301C233.026 36.2774 233.437 36.5011 233.941 36.5011C235.319 36.5011 236.803 34.5407 238.393 30.62L230.641 14.2397C230.35 13.6608 229.939 13.1345 229.409 12.6609C228.879 12.1609 228.614 11.7662 228.614 11.4768V11.3189C228.614 10.9505 228.853 10.7663 229.33 10.7663H235.61C236.061 10.7663 236.286 10.9636 236.286 11.3584V11.4768C236.286 11.6873 236.167 11.9241 235.928 12.1872C235.69 12.4504 235.517 12.7004 235.411 12.9372C235.332 13.174 235.411 13.6213 235.65 14.2792L240.897 26.2387L245.826 14.7133C246.065 13.9239 246.065 13.3845 245.826 13.0951C245.588 12.7793 245.256 12.4898 244.832 12.2267C244.408 11.9373 244.196 11.6873 244.196 11.4768V11.3584C244.196 10.9636 244.435 10.7663 244.912 10.7663H249.324Z" fill="black"/>
<path d="M227.442 26.3967C227.469 26.9756 227.707 27.5018 228.158 27.9755C228.635 28.4228 228.873 28.7649 228.873 29.0017V29.1596C228.873 29.5543 228.582 29.7517 227.999 29.7517H222.195C221.612 29.7517 221.321 29.5543 221.321 29.1596V29.0017C221.321 28.7649 221.559 28.4228 222.036 27.9755C222.54 27.5018 222.778 26.9756 222.752 26.3967L222.354 18.7789C222.169 14.4371 220.778 12.2662 218.181 12.2662C216.935 12.2662 215.928 12.7267 215.159 13.6477C214.391 14.5424 214.007 15.7133 214.007 17.1606V26.4361C214.007 27.015 214.272 27.5282 214.802 27.9755C215.358 28.4228 215.636 28.7649 215.636 29.0017V29.1596C215.636 29.5543 215.345 29.7517 214.762 29.7517H208.601C208.044 29.7517 207.766 29.5543 207.766 29.1596V29.0017C207.766 28.7649 208.031 28.4228 208.561 27.9755C209.091 27.5282 209.356 27.015 209.356 26.4361V15.858C209.356 15.3581 209.197 14.9502 208.879 14.6345C208.587 14.3187 208.296 14.0687 208.004 13.8845C207.713 13.674 207.567 13.4503 207.567 13.2135V13.0951C207.567 12.832 207.806 12.5951 208.283 12.3846L212.138 10.5295C212.562 10.3453 212.867 10.3322 213.053 10.4901C213.265 10.6216 213.371 10.8716 213.371 11.24V13.8056C213.927 12.7267 214.735 11.8847 215.795 11.2795C216.856 10.6742 218.061 10.3716 219.413 10.3716C221.453 10.3716 223.176 11.069 224.58 12.4636C225.985 13.8582 226.78 16.0159 226.965 18.9367L227.442 26.3967Z" fill="black"/>
<path d="M201.062 7.49025C200.081 7.49025 199.286 7.21395 198.677 6.66137C198.067 6.10878 197.763 5.39831 197.763 4.52996C197.763 3.66161 198.067 2.95114 198.677 2.39855C199.286 1.84597 200.081 1.56967 201.062 1.56967C202.016 1.56967 202.784 1.84597 203.367 2.39855C203.977 2.95114 204.282 3.66161 204.282 4.52996C204.282 5.39831 203.977 6.10878 203.367 6.66137C202.784 7.21395 202.016 7.49025 201.062 7.49025ZM198.12 29.7121C197.564 29.7121 197.286 29.5148 197.286 29.1201V28.9622C197.286 28.7254 197.524 28.3833 198.001 27.936C198.505 27.4886 198.756 26.9755 198.756 26.3966V16.0553C198.756 15.4501 198.505 14.8844 198.001 14.3581C197.524 13.8318 197.286 13.4898 197.286 13.3319V13.2135C197.286 13.003 197.524 12.7661 198.001 12.503L201.976 10.5295C202.427 10.3453 202.771 10.3321 203.01 10.49C203.275 10.6216 203.407 10.8584 203.407 11.2005V26.3966C203.407 26.9755 203.672 27.4886 204.202 27.936C204.759 28.3833 205.037 28.7254 205.037 28.9622V29.1201C205.037 29.5148 204.745 29.7121 204.162 29.7121H198.12Z" fill="black"/>
<path d="M187.673 29.7122C187.116 29.7122 186.838 29.5148 186.838 29.1201V29.0017C186.838 28.7386 187.076 28.3833 187.553 27.936C188.057 27.4887 188.309 26.9887 188.309 26.4361V5.63517C188.309 5.00365 188.057 4.4379 187.553 3.93794C187.076 3.43798 186.838 3.10906 186.838 2.95118V2.83277C186.838 2.59594 187.063 2.35912 187.514 2.1223L191.528 0.148774C191.979 -0.035422 192.323 -0.0485793 192.562 0.109302C192.827 0.24087 192.959 0.464537 192.959 0.780302V26.4361C192.959 26.9887 193.224 27.5018 193.754 27.9755C194.311 28.4228 194.589 28.7649 194.589 29.0017V29.1201C194.589 29.5148 194.298 29.7122 193.715 29.7122H187.673Z" fill="black"/>
<path d="M174.743 30.1069C171.484 30.1069 168.873 29.1201 166.912 27.1466C164.951 25.1731 163.971 22.8049 163.971 20.0419C163.971 17.279 164.925 14.9765 166.833 13.1346C168.741 11.2926 171.073 10.3716 173.829 10.3716C176.903 10.3716 179.42 11.3452 181.381 13.2925C183.342 15.2134 184.323 17.5684 184.323 20.3577C184.323 23.1206 183.435 25.4362 181.66 27.3045C179.884 29.1728 177.579 30.1069 174.743 30.1069ZM175.339 28.607C176.611 28.607 177.645 28.0281 178.44 26.8703C179.235 25.6862 179.632 24.0548 179.632 21.976C179.632 19.1867 179.023 16.8053 177.804 14.8318C176.611 12.8583 175.114 11.8715 173.312 11.8715C171.881 11.8715 170.742 12.4504 169.894 13.6082C169.072 14.7397 168.661 16.3712 168.661 18.5026C168.661 21.0813 169.284 23.4101 170.53 25.4888C171.802 27.5676 173.405 28.607 175.339 28.607Z" fill="black"/>
<path d="M135.987 29.7122C135.404 29.7122 135.112 29.528 135.112 29.1596V29.0412C135.112 28.8044 135.364 28.4623 135.867 28.015C136.371 27.5414 136.623 27.0151 136.623 26.4362V4.96422C136.623 4.38532 136.371 3.87221 135.867 3.42487C135.364 2.95123 135.112 2.59599 135.112 2.35917V2.24076C135.112 1.87237 135.404 1.68817 135.987 1.68817H144.732C149.608 1.68817 153.609 3.01701 156.736 5.67469C159.89 8.30606 161.467 11.6084 161.467 15.5818C161.467 19.8709 160.062 23.3049 157.253 25.8836C154.471 28.436 150.893 29.7122 146.52 29.7122H135.987ZM143.738 27.6992H146.242C149.263 27.6992 151.728 26.7651 153.636 24.8968C155.57 23.0286 156.538 20.5156 156.538 17.358C156.538 13.4372 155.319 10.1875 152.881 7.60875C150.443 5.00369 147.421 3.70117 143.817 3.70117H142.704C141.803 3.70117 141.353 4.18797 141.353 5.16158V24.8968C141.353 25.7915 141.565 26.4888 141.989 26.9888C142.413 27.4624 142.996 27.6992 143.738 27.6992Z" fill="black"/>
<ellipse cx="97.2296" cy="17.0816" rx="7.9501" ry="7.8941" fill="#0C0C0C"/>
<ellipse cx="117.105" cy="17.0816" rx="7.9501" ry="7.8941" fill="#0C0C0C"/>
</svg>
