<svg width="42" height="41" viewBox="0 0 42 41" fill="none" xmlns="http://www.w3.org/2000/svg">
<path d="M12.593 10.3571C14.5858 10.6307 16.1228 11.2833 17.204 12.3148C18.3064 13.3252 18.8576 14.5988 18.8576 16.1355C18.8576 18.0301 18.0096 19.5563 16.3136 20.7141C14.6388 21.8509 12.4234 22.4192 9.66733 22.4192H0.667809C0.222603 22.4192 0 22.2719 0 21.9772V21.8509C0 21.6825 0.190802 21.4193 0.572407 21.0615C0.975213 20.6825 1.17662 20.2615 1.17662 19.7984V2.62084C1.17662 2.15772 0.975213 1.74723 0.572407 1.38936C0.190802 1.01045 0 0.726258 0 0.5368V0.44207C0 0.147356 0.222603 0 0.667809 0H8.39531C11.0029 0 13.0382 0.526273 14.501 1.57882C15.9638 2.61032 16.6952 3.95758 16.6952 5.6206C16.6952 6.8205 16.3242 7.84147 15.5822 8.68351C14.8614 9.5045 13.865 10.0623 12.593 10.3571ZM5.02447 2.87345V8.39932C5.02447 8.79929 5.15167 9.12558 5.40607 9.37819C5.66047 9.6308 5.99968 9.75711 6.42368 9.75711H9.28572C10.4729 9.75711 11.4269 9.43082 12.1478 8.77824C12.8898 8.10461 13.2608 7.25205 13.2608 6.22055C13.2608 4.76804 12.8156 3.64181 11.9252 2.84188C11.0347 2.02089 9.81573 1.6104 8.26811 1.6104H6.16928C5.40607 1.6104 5.02447 2.03142 5.02447 2.87345ZM9.34932 20.8089C13.0594 20.8089 14.9144 19.4511 14.9144 16.7355C14.9144 15.2619 14.3102 13.9989 13.1018 12.9463C11.8934 11.8727 10.2291 11.3359 8.10911 11.3359H5.02447V18.9143C5.02447 19.4616 5.18347 19.9142 5.50147 20.2721C5.81948 20.6299 6.23288 20.8089 6.74169 20.8089H9.34932Z" fill="#000000"/>
<path d="M20.6996 22.4192C20.2332 22.4192 20 22.2719 20 21.9772V21.8824C20 21.693 20.2014 21.4193 20.6042 21.0615C21.007 20.6825 21.2084 20.2615 21.2084 19.7984V2.62084C21.2084 2.15772 21.007 1.74723 20.6042 1.38936C20.2014 1.01045 20 0.726258 20 0.5368V0.44207C20 0.147356 20.2332 0 20.6996 0H27.6957C31.5965 0 34.7978 1.06307 37.2994 3.18922C39.8223 5.29431 41.0837 7.9362 41.0837 11.1149C41.0837 14.5462 39.9601 17.2933 37.7128 19.3563C35.4868 21.3983 32.6248 22.4192 29.1267 22.4192H20.6996ZM26.9007 20.8089H28.9041C31.3209 20.8089 33.2926 20.0615 34.819 18.5669C36.3666 17.0723 37.1404 15.0619 37.1404 12.5358C37.1404 9.39924 36.1652 6.79945 34.2148 4.73646C32.2644 2.65242 29.8475 1.6104 26.9643 1.6104H26.0739C25.3531 1.6104 24.9927 1.99984 24.9927 2.77872V18.5669C24.9927 19.2827 25.1623 19.8405 25.5015 20.2405C25.8407 20.6194 26.3071 20.8089 26.9007 20.8089Z" fill="#000000"/>
<ellipse cx="12.3601" cy="34.6654" rx="6.36008" ry="6.31528" fill="#000000"/>
<ellipse cx="28.2605" cy="34.6654" rx="6.36008" ry="6.31528" fill="#000000"/>
</svg>
